<?xml version="1.0" encoding="utf-8" ?><svg xmlns="http://www.w3.org/2000/svg" xmlns:xlink="http://www.w3.org/1999/xlink" width="2842" height="746" viewBox="0 0 2842 746"><path fill="#00181B" d="M1159.87 23.4518C1195.91 23.976 1199.01 15.2525 1196.63 58.9906C1195.64 77.0622 1199.3 109.393 1195.71 125.861C1191.47 131.02 1166.98 129.008 1159.51 129.024L1113.8 129.558L964.707 129.547C954.752 129.543 908.938 128.335 903.136 131.482C904.64 182.138 903.729 235.649 903.541 286.438L990.693 286.473C1044.81 286.544 1077.28 285.082 1125.81 310.45C1142.95 319.227 1158.67 330.548 1172.43 344.027C1254.22 425.474 1252.24 582.029 1171.27 663.45C1153.31 681.505 1140.55 688.914 1118.44 700.689C1064.68 729.326 1015.28 726.196 956.248 726.123L841.856 725.926C834.045 726.002 805.477 727.101 800.054 724.465C796.324 717.613 798.126 632.266 798.535 619.514C844.42 618.649 890.727 620.262 936.478 619.443C987.401 618.533 1030.61 626.782 1076.09 599.391C1143.15 559.005 1136.73 427.709 1060.22 401.469C1025.38 389.523 971.863 392.648 934.7 392.662L841.189 392.708C831.513 392.712 804.247 393.915 797.168 390.162C795.361 385.551 793.873 36.8194 796.551 25.552C804.393 23.2641 884.395 24.142 897.925 24.1519C985.24 24.4528 1072.56 24.2194 1159.87 23.4518Z"/><path fill="#00181B" d="M484.911 20.4749C581.189 19.1129 676.454 45.5446 717.287 142.382C730.087 172.735 735.876 205.584 734.224 238.484C729.596 334.236 670.473 397.169 607.954 463.268C574.891 501.224 537.781 535.463 504.215 572.823C498.605 579.068 463.984 614.187 462.276 618.389C468.257 621.439 661.376 619.403 680.852 619.409C692.588 619.412 722.289 617.069 731.923 621.064C732.84 621.444 732.861 621.552 733.227 622.476C735.466 628.128 735.281 705.173 734.721 714.697C734.523 718.066 734.11 721.108 732.738 724.231C726.379 727.696 625.352 726.068 609.25 726.455C547.791 726.981 486.363 725.769 424.961 726.031L367.968 726.349C360.406 726.46 330.695 728.741 326.539 723.238C326.67 720.739 326.65 719.753 328.458 717.469C331.888 713.14 336.144 709.297 339.664 705.013C350.21 692.177 357.663 680.349 362.853 665.129C369.495 645.652 364.128 577.777 366.295 564.086C366.933 560.053 418.912 509.347 425.837 502.59C445.619 483.287 466.317 460.573 486.014 440.274C526.336 398.72 571.935 355.622 601.637 305.544C620.063 274.477 625.417 233.5 616.631 198.617C614.803 191.359 612.706 189.973 609.866 184.113C602.219 168.336 599.949 165.768 587.169 154.757C558.629 130.169 522.864 126.63 486.713 127.818C479.608 128.051 454.49 132.055 450.209 129.638C445.392 123.141 443.145 114.963 438.916 107.988C429.435 92.3484 417.132 78.8398 406.828 63.8781C402.675 57.8489 387.741 50.5209 387.085 42.7927C391.445 37.4228 436.144 26.6832 445.086 25.368C456.403 23.7035 473.179 21.9035 484.911 20.4749Z"/><path fill="#00181B" d="M212.705 21.4932C224.771 20.7819 253.77 24.4284 265.391 26.981C322.304 39.4825 369.335 75.7956 399.558 125.155C443.663 197.187 438.427 285.488 390.361 354.214C372.902 379.178 350.94 398.853 339.001 427.505C331.571 445.334 328.69 468.271 327.059 487.394C326.257 496.802 327.033 505.476 324.899 514.901C321.718 517.713 283.987 517.555 279.229 514.771C272.842 507.632 279.837 432.79 286.326 419.909C287.604 417.373 292.449 407.513 294.044 404.229C299.888 392.036 306.696 380.329 314.403 369.219C346.344 324.146 374.179 303.233 378.64 242.006C385.12 153.076 312.881 73.8119 224.252 72.4561C220.569 71.9795 216.171 71.9502 212.427 72.256C166.369 76.017 127.645 92.544 96.4041 127.324C76.474 149.513 62.1652 183.228 59.1514 212.715C53.3835 257.664 69.4442 304.219 98.466 338.6C131.563 377.808 156.246 416.045 158.213 469.341C158.521 477.666 161.046 511.117 156.538 516.277C148.287 517.903 118.303 517.604 110.365 515.437C106.758 511.797 108.817 470.409 107.021 461.246C105.397 452.968 104.081 448.946 101.821 441.206C92.7697 407.941 70.1472 384.992 49.8014 358.629C21.834 322.391 6.76991 276.781 7.23328 231.094C7.70794 184.294 22.2302 140.876 51.0644 103.872C83.0109 62.8741 127.604 35.7842 178.455 25.5734C189.975 23.2834 201.327 23.4125 212.705 21.4932Z"/><path fill="#00181B" d="M2168.99 103.477C2197.77 102.983 2225.31 107.365 2250.4 122.328C2279.28 139.55 2302.99 169.271 2311.05 202.208C2312.97 210.06 2319.89 263.833 2315.96 269.673C2311.19 276.748 2211.08 272.482 2197.46 272.591C2179.68 272.733 2161.94 274.12 2144.17 274.392C2136.03 274.517 2125.49 273.091 2117.63 274.706C2115.58 275.127 2115.3 275.453 2114.15 277.184C2114.48 280.2 2115.48 282.331 2116.5 285.121C2128.59 318.948 2169.09 333.968 2202.31 326.475C2216.15 323.352 2237.37 316.255 2245.88 304.301C2246.88 302.903 2248.95 301.007 2250.19 299.72C2257.52 298.889 2264.99 307.969 2269.84 312.771C2277.88 320.679 2300.94 335.043 2292 344.702C2238.83 402.141 2140.9 405.048 2081.94 354.855C2055.62 332.373 2039.3 300.368 2036.57 265.866C2033.4 223.801 2039.99 187.037 2068.12 153.985C2092.43 125.432 2131.5 106.067 2168.99 103.477ZM2191.5 220.423C2200.06 220.473 2232.84 221.258 2239.05 219.871C2243.28 215.574 2238.64 210.716 2237.45 205.886C2228.22 168.563 2194.87 166.907 2164.29 167.848C2159.3 170.67 2154.41 171.741 2150 173.721C2132.23 181.705 2120.64 195.628 2114.35 213.535C2113.33 216.447 2113.71 217.094 2115.03 219.487C2121.06 221.292 2181.12 220.453 2191.5 220.423Z"/><path fill="#00181B" d="M2493.54 103.48C2507.91 103.236 2516.9 103.149 2530.96 105.693C2581.59 114.854 2610.89 153.836 2616.36 203.094C2618.03 218.151 2617.65 231.871 2617.65 247.115L2617.59 313.529C2617.58 325.188 2618.54 372.243 2616.75 380.698C2612.69 386.121 2595.31 384.931 2588.69 384.426C2578.24 383.627 2551.27 386.843 2542.92 383.03C2537.2 373.076 2543.29 242.117 2539.38 220.828C2535.31 198.725 2534.65 198.295 2518.52 181.891C2505.84 169.005 2460.96 168.151 2453.38 180.019C2444.84 180.814 2428.75 203.488 2427.49 211.199C2424.79 227.746 2425.57 248.676 2425.58 265.469L2425.73 353.907C2425.74 360.467 2427.78 382.724 2420.96 383.516C2411.14 384.657 2356.74 386.194 2350.92 383.148C2348.37 378.031 2349.36 322.394 2349.36 312.994L2349.29 204.609L2349.31 148.819C2349.32 138.299 2348.81 121.255 2350.69 111.47C2360.57 106.85 2398.28 110.165 2411.31 108.328C2428.84 105.857 2420.25 132.15 2423.69 135.622C2446.79 117.135 2463.35 107.608 2493.54 103.48Z"/><path fill="#00181B" d="M1602.69 104.438C1608.58 104.237 1614.51 103.98 1620.39 104.249C1649.57 105.581 1676.88 115.755 1696.83 137.672C1713.27 155.744 1720.8 179.085 1724.95 202.692C1727.62 217.881 1725.56 251.562 1725.56 268.684C1725.55 307.091 1727.17 346.033 1725.44 384.381C1701.89 385.332 1673.43 384.554 1649.51 384.531C1648.93 374.653 1649.33 361.669 1649.17 351.503C1648.59 327.966 1648.32 304.422 1648.36 280.878C1648.36 256.359 1652.15 230.575 1644.69 206.844C1636.66 181.298 1606.37 167.601 1581.13 172.683C1573.91 174.134 1566.51 178.239 1559.59 180.682C1554.24 187.272 1544.17 190.932 1539.74 201.512C1530.38 223.844 1532.56 249.1 1532.56 272.883L1532.68 351.975C1532.7 357.904 1533.28 378.314 1531.54 382.544C1524.32 386.164 1470.13 384.546 1457.53 384.486C1456.92 369.033 1457.38 350.503 1457.36 334.868L1457.29 236.182L1456.39 145.006C1456.32 136.818 1455.7 128.714 1455.7 120.587C1455.7 112.926 1455.26 114.524 1460 109.947C1465.72 108.435 1515.84 109 1524.51 110.031C1535.41 111.328 1528.11 130.743 1531.65 136.375C1550.45 121.151 1566.56 109.925 1591.37 107.058C1594.95 106.644 1599.16 105.397 1602.69 104.438Z"/><path fill="#00181B" d="M1964.17 108.38C1975.21 108.336 2035.11 105.168 2038.33 113.152C2038.02 122.388 1995.55 220.149 1988.9 236.149L1943.25 347.308C1938.8 358.051 1935.42 371.316 1929.64 381.277C1928.74 382.833 1928.24 383.21 1926.54 383.675C1920.87 385.23 1854.82 385.612 1851.7 383.751C1849.37 382.364 1846.79 375.418 1845.58 372.725C1833.28 345.241 1822.94 316.878 1811.31 289.109C1803.15 269.648 1791.75 248.283 1786.25 228.087L1786.25 226.628C1782.74 222.351 1770.78 190.047 1767.16 182.414C1758.01 163.163 1751.45 140.707 1742.33 121.28C1740.18 116.695 1739.32 113.927 1742.89 109.851C1758.67 106.811 1799.28 109.895 1816.2 110.46C1821.93 110.652 1827.31 131.239 1829.33 136.855C1834.32 150.581 1839.41 164.269 1844.62 177.916L1874.76 258.2C1879.66 271.207 1884.88 281.719 1888.96 294.922C1892.36 293.999 1894.77 283.401 1895.98 280.085C1916.36 224.361 1937.57 168.932 1959.04 113.626C1959.67 111.991 1962.78 109.485 1964.17 108.38Z"/><path fill="#00181B" d="M2682.28 36.3971C2706.34 36.2173 2730.4 36.258 2754.46 36.5192C2756.22 56.5374 2755.43 90.9307 2754.9 111.386C2766 111.396 2812.94 109.949 2820.01 112.892C2822.69 117.694 2822.86 165.467 2819.95 170.129C2814.13 172.838 2764.61 171.62 2754.68 171.568C2755.57 217.274 2755.2 261.612 2755.62 307.203C2756.75 308.701 2757.56 310.471 2758.51 312.048C2771.82 334.15 2793.82 322.897 2812.06 316.111C2818.34 313.774 2820.59 329.268 2821.73 333.226C2824.29 342.115 2830.27 352.468 2831 361.571L2832.13 364.044C2830.01 374.811 2816.27 377.446 2806.9 382.088C2789.07 390.918 2762.08 389.025 2742.46 388.052C2732.76 387.57 2709.31 373.615 2702.22 366.751C2693.47 358.174 2687.13 347.443 2683.85 335.638C2676.89 310.857 2679.04 275.269 2679.16 248.847C2679.29 223.122 2679.17 197.396 2678.78 171.674L2637.64 171.508C2637.55 170.67 2637.49 169.83 2637.45 168.988C2636.87 154.785 2634.8 126.901 2637.88 113.297C2639.4 106.567 2676.59 113.532 2678.07 109.881C2683.28 97.0419 2674.1 45.0629 2682.28 36.3971Z"/><path fill="#001B15" d="M1580.26 490.431C1580.79 490.378 1581.32 490.333 1581.85 490.295C1658.08 484.568 1684.71 550.921 1681.66 615.387C1679.79 654.855 1667.01 695.057 1628.56 713.366C1622.06 716.461 1609.8 720.669 1602.71 721.114C1575.01 722.982 1557.33 718.862 1534.87 700.815C1487.68 662.905 1487.12 561.75 1525.25 518.063C1539.25 501.982 1559.01 492.055 1580.26 490.431ZM1600.34 690.992C1652.59 675.129 1651.5 629.798 1648.62 582.568C1646.41 546.155 1620.97 515.717 1582.18 518.059C1577.17 520.113 1572.27 521.446 1567.17 523.103C1554.17 527.437 1543.57 543.197 1538.83 555.39C1527.2 585.378 1527.58 624.011 1539.5 653.917C1550.82 682.314 1571.55 691.915 1600.34 690.992Z"/><path fill="#00181B" d="M184.118 297.799C208.467 290.731 231.68 290.038 254.507 302.456C265.446 306.578 262.516 305.601 262.304 317.008C262.219 321.615 261.892 326.53 261.956 331.14L263.367 506.964C263.52 522.915 265.388 536.762 265.238 553.284L325.613 553.359C326.029 561.138 327.016 589.585 324.058 595.268C319.45 596.793 307.653 596.719 302.378 596.695C241.606 596.419 180.76 597.352 120.01 596.233C117.735 596.191 114.785 596.068 112.954 594.799C110.056 587.944 111.27 562.27 111.386 553.406C129.37 552.37 153.83 553.05 172.299 553.043C172.323 492.884 171.898 369.443 172.675 303.803C172.705 301.311 181.078 298.739 184.118 297.799Z"/><path fill="#001B15" d="M172.299 553.043C172.323 492.884 171.898 369.443 172.675 303.803C172.705 301.311 181.078 298.739 184.118 297.799C179.032 305.51 183.938 388.467 181.792 403.359C180.588 411.712 185.749 439.657 184.962 450.313C183.637 485.917 183.497 521.222 183.498 556.831C186.644 556.959 192.933 556.809 195.39 558.227C186.018 561.339 120.583 556.619 118.319 560.927C116.113 565.124 118.336 584.057 118.062 590.038C155.097 589.478 194.624 590.238 231.87 590.423L319.504 590.17C319.19 582.432 319.108 566.674 320.141 559.066C307.968 559.69 248.429 560.799 238.787 558.866L238.337 557.985C241.694 556.431 251.521 556.639 255.753 556.54C251.295 491.954 256.53 425.886 254.987 361.202C254.52 341.621 254.446 322.041 254.507 302.456C265.446 306.578 262.516 305.601 262.304 317.008C262.219 321.615 261.892 326.53 261.956 331.14L263.367 506.964C263.52 522.915 265.388 536.762 265.238 553.284L325.613 553.359C326.029 561.138 327.016 589.585 324.058 595.268C319.45 596.793 307.653 596.719 302.378 596.695C241.606 596.419 180.76 597.352 120.01 596.233C117.735 596.191 114.785 596.068 112.954 594.799C110.056 587.944 111.27 562.27 111.386 553.406C129.37 552.37 153.83 553.05 172.299 553.043Z"/><path fill="#00181B" d="M1324.24 24.4268C1347.97 24.2602 1370.94 24.8636 1394.96 24.4798C1396.46 26.8143 1398.01 29.2193 1398.18 32.0064C1399.47 52.3664 1399.6 73.1642 1399.62 93.5196L1399.58 190.459L1399.66 315.456C1399.67 336.525 1399.7 357.893 1399.53 378.988C1399.51 381.966 1397.98 382.541 1395.72 384.588C1384.01 384.614 1326.58 386.781 1321.03 381.547C1319.1 364.321 1319.23 32.5282 1321.36 26.337C1321.7 25.3367 1323.27 24.8919 1324.24 24.4268Z"/><path fill="#001B15" d="M1897.81 491.215C1911.83 490.579 2020.65 490.173 2024.37 492.558C2026.73 496.006 2026.14 506.036 2025.98 510.317C2025.87 513.223 2025.59 516.463 2023.23 518.475C2018.29 522.699 1938.72 520.443 1926.05 519.837C1924.14 535.901 1922.28 564.244 1921.78 580.274C1953.37 578.321 1991.89 576.456 2017.64 598.584C2052.02 628.123 2041.64 689.902 2001.89 709.865C1994.49 713.578 1985.58 717.714 1977.2 718.31C1949.47 726.919 1902.81 714.947 1881.82 694.627C1873.13 686.223 1886.49 673.618 1893.08 668.553C1895.06 668.938 1907.64 677.576 1910.69 679.221C1936.18 692.996 1964.89 694.662 1991.07 681.941C1993.38 680.819 2002.89 668.826 2003.6 665.917C2017.92 607.479 1960.4 606.392 1919.43 610.272C1912.21 610.953 1900.01 613.1 1893.8 611.553C1885.65 604.816 1893.74 547.361 1894.71 534.922C1895.38 526.188 1893.54 496.74 1897.81 491.215Z"/><path fill="#001B15" d="M1769.54 489.451C1775.15 488.239 1785.28 489.426 1790.88 490.131C1848.7 497.421 1869.71 552.162 1835.24 598.315C1814.76 625.724 1790.45 646.598 1766.76 671.044C1763.03 674.894 1752.69 682.47 1752.08 687.122C1756.3 690.651 1842.51 685.937 1857.38 690.058C1861.35 695.171 1859.41 710.88 1858.86 717.657C1849.26 718.286 1832.95 717.85 1822.87 717.882L1749.25 717.919C1740.25 717.983 1709.58 719.247 1703 716.062C1700.6 712.513 1700.63 700.439 1700.41 695.503C1702.71 692.652 1705.53 689.932 1708.11 687.316C1735.82 659.234 1765.82 633.061 1792.14 603.64C1803.67 590.748 1817.49 577.927 1819.63 559.914C1824.64 517.59 1769.74 511.688 1742.04 527.699C1731.69 533.603 1725.13 539.618 1716.05 546.515C1711.99 542.717 1699.01 531.155 1698.07 526.59C1702.76 513.067 1734.45 496.005 1747.88 492.356C1752.58 491.078 1764.08 490.03 1769.54 489.451Z"/><path fill="#001B15" d="M1383.08 490.429C1417.23 485.445 1459.27 499.443 1468.45 536.206C1481.86 589.923 1426.89 627.698 1395.63 662.502C1392.41 666.09 1373.29 683.888 1372.25 685.612C1378.31 694.627 1464.43 684.394 1478.42 691.121C1481.32 692.512 1480.2 712.946 1480.12 717.647C1470.49 718.369 1454.36 717.892 1444.37 717.923L1377.25 718.223C1360.27 717.837 1342.39 719.29 1325.77 717.36C1322.95 717.033 1324 696.681 1324.07 694.095C1329.51 689.692 1349.05 669.231 1354.89 663.185C1377.23 640.067 1401.43 616.173 1422.37 591.837C1438.86 572.675 1439.07 563.519 1436.73 540.325C1424.08 525.577 1416.53 520.043 1395.81 519.909C1369.02 519.737 1355.01 530.246 1337 548.416C1332.62 544.067 1320.92 533.212 1318.92 528.37C1319.75 510.872 1366.94 491.335 1383.08 490.429Z"/><path fill="#00181B" d="M115.191 619.415C135.127 619.41 318.752 618.112 324.617 620.916C326.895 626.893 325.466 644.155 324.826 651.2C324.678 652.824 320.619 657.842 318.536 659.022C314.731 659.473 310.858 660.948 306.655 661.178C293.412 661.9 280.063 661.762 266.82 661.778L192.957 661.623C169.735 661.653 145.662 662.464 122.57 660.601C106.365 659.294 112.412 634.223 111.411 623.266C111.243 621.421 113.915 620.154 115.191 619.415Z"/><path fill="#00181B" d="M219.105 141.541C224.411 144.502 264.228 228.389 271.629 238.862C272.854 240.596 273.144 245.615 272.233 247.94C268.812 249.559 224.423 247.769 215.75 247.929C202.748 247.642 173.692 250.947 165.285 249.205C163.1 246.096 162.624 243.889 164.575 240.402C180.629 211.706 196.804 183.029 211.863 153.795C214.508 148.659 215.219 146.046 219.105 141.541Z"/><path fill="#00181B" d="M155.807 682.296C173.047 684.973 193.128 681.338 209.275 682.605C226.251 683.937 271.258 679.876 284.564 683.989C291.82 692.779 279.102 706.72 272.562 712.588C265.386 715.941 251.838 726.701 243.187 726.124C217.752 724.428 185.397 732.191 164.637 713.626C158.233 707.899 151.401 694.961 151.009 687.018C152.127 684.364 153.37 683.843 155.807 682.296Z"/></svg>